<svg width="40" height="40" viewBox="0 0 40 40" fill="none" xmlns="http://www.w3.org/2000/svg">
<path d="M35.0334 7.63343C34.1972 6.79439 33.2037 6.12865 32.1097 5.67441C31.0158 5.22016 29.8429 4.98633 28.6584 4.98633C27.4738 4.98633 26.301 5.22016 25.207 5.67441C24.113 6.12865 23.1195 6.79439 22.2834 7.63343L21 8.93343L19.7167 7.63343C18.8806 6.79439 17.887 6.12865 16.7931 5.67441C15.6991 5.22016 14.5262 4.98633 13.3417 4.98633C12.1572 4.98633 10.9843 5.22016 9.89032 5.67441C8.79636 6.12865 7.80282 6.79439 6.96669 7.63343C3.43336 11.1668 3.21669 17.1334 7.66669 21.6668L21 35.0001L34.3334 21.6668C38.7834 17.1334 38.5667 11.1668 35.0334 7.63343Z" stroke="white" stroke-width="2" stroke-linecap="round" stroke-linejoin="round"/>
</svg>
