<svg width="32" height="32" viewBox="0 0 32 32" fill="none" xmlns="http://www.w3.org/2000/svg">
<path d="M15.9957 10.6647C13.0578 10.6647 10.6602 13.0623 10.6602 16.0002C10.6602 18.9381 13.0578 21.3357 15.9957 21.3357C18.9336 21.3357 21.3312 18.9381 21.3312 16.0002C21.3312 13.0623 18.9336 10.6647 15.9957 10.6647ZM31.9982 16.0002C31.9982 13.7907 32.0182 11.6013 31.8941 9.39585C31.7701 6.83417 31.1857 4.56067 29.3125 2.68744C27.4352 0.81021 25.1657 0.229829 22.604 0.105747C20.3946 -0.0183344 18.2052 0.00167884 15.9997 0.00167884C13.7902 0.00167884 11.6008 -0.0183344 9.39536 0.105747C6.83368 0.229829 4.56019 0.814213 2.68696 2.68744C0.809722 4.56468 0.22934 6.83417 0.105259 9.39585C-0.0188226 11.6053 0.00119056 13.7947 0.00119056 16.0002C0.00119056 18.2056 -0.0188226 20.3991 0.105259 22.6045C0.22934 25.1662 0.813725 27.4397 2.68696 29.3129C4.56419 31.1902 6.83368 31.7706 9.39536 31.8946C11.6048 32.0187 13.7943 31.9987 15.9997 31.9987C18.2092 31.9987 20.3986 32.0187 22.604 31.8946C25.1657 31.7706 27.4392 31.1862 29.3125 29.3129C31.1897 27.4357 31.7701 25.1662 31.8941 22.6045C32.0222 20.3991 31.9982 18.2096 31.9982 16.0002ZM15.9957 24.2096C11.4527 24.2096 7.78631 20.5432 7.78631 16.0002C7.78631 11.4572 11.4527 7.7908 15.9957 7.7908C20.5387 7.7908 24.2051 11.4572 24.2051 16.0002C24.2051 20.5432 20.5387 24.2096 15.9957 24.2096ZM24.5413 9.37183C23.4806 9.37183 22.6241 8.51527 22.6241 7.45458C22.6241 6.39388 23.4806 5.53732 24.5413 5.53732C25.602 5.53732 26.4586 6.39388 26.4586 7.45458C26.4589 7.70644 26.4095 7.9559 26.3133 8.18865C26.217 8.42141 26.0758 8.63289 25.8977 8.81099C25.7196 8.98909 25.5082 9.1303 25.2754 9.22654C25.0426 9.32278 24.7932 9.37215 24.5413 9.37183Z" fill="white"/>
</svg>
