<svg width="32" height="32" viewBox="0 0 32 32" fill="none" xmlns="http://www.w3.org/2000/svg">
<path d="M16 0C7.16429 0 0 7.16429 0 16C0 24.8357 7.16429 32 16 32C24.8357 32 32 24.8357 32 16C32 7.16429 24.8357 0 16 0ZM23.6893 12.0607C23.7 12.2286 23.7 12.4036 23.7 12.575C23.7 17.8179 19.7071 23.8571 12.4107 23.8571C10.1607 23.8571 8.075 23.2036 6.31786 22.0786C6.63929 22.1143 6.94643 22.1286 7.275 22.1286C9.13214 22.1286 10.8393 21.5 12.2 20.4357C10.4571 20.4 8.99286 19.2571 8.49286 17.6857C9.10357 17.775 9.65357 17.775 10.2821 17.6143C9.38474 17.432 8.57812 16.9446 7.99934 16.2349C7.42056 15.5253 7.10531 14.6372 7.10714 13.7214V13.6714C7.63214 13.9679 8.25 14.15 8.89643 14.175C8.35301 13.8128 7.90735 13.3222 7.59897 12.7465C7.29059 12.1709 7.12901 11.528 7.12857 10.875C7.12857 10.1357 7.32143 9.46071 7.66786 8.875C8.66394 10.1012 9.9069 11.1041 11.3159 11.8184C12.725 12.5328 14.2686 12.9427 15.8464 13.0214C15.2857 10.325 17.3 8.14286 19.7214 8.14286C20.8643 8.14286 21.8929 8.62143 22.6179 9.39286C23.5143 9.225 24.3714 8.88929 25.1357 8.43929C24.8393 9.35714 24.2179 10.1321 23.3929 10.6214C24.1929 10.5357 24.9643 10.3143 25.6786 10.0036C25.1393 10.7964 24.4643 11.5 23.6893 12.0607Z" fill="white"/>
</svg>
