<svg width="32" height="32" viewBox="0 0 32 32" fill="none" xmlns="http://www.w3.org/2000/svg">
<path d="M18.6717 15.7217L14.9283 13.975C14.6017 13.8233 14.3333 13.9933 14.3333 14.355V17.645C14.3333 18.0067 14.6017 18.1767 14.9283 18.025L18.67 16.2783C18.9983 16.125 18.9983 15.875 18.6717 15.7217ZM16 0C7.16333 0 0 7.16333 0 16C0 24.8367 7.16333 32 16 32C24.8367 32 32 24.8367 32 16C32 7.16333 24.8367 0 16 0ZM16 22.5C7.81 22.5 7.66667 21.7617 7.66667 16C7.66667 10.2383 7.81 9.5 16 9.5C24.19 9.5 24.3333 10.2383 24.3333 16C24.3333 21.7617 24.19 22.5 16 22.5Z" fill="white"/>
</svg>
