<svg width="125" height="52" viewBox="0 0 125 52" fill="none" xmlns="http://www.w3.org/2000/svg">
<path d="M6.84 0.959999H9.384L16.008 18H13.176L11.376 13.368H4.8L3.024 18H0.168L6.84 0.959999ZM10.848 11.376L8.112 3.912L5.28 11.376H10.848ZM32.0353 7.728C31.0113 7.744 30.0993 7.976 29.2993 8.424C28.5153 8.872 27.9553 9.504 27.6193 10.32V18H24.9793V5.448H27.4273V8.256C27.8593 7.392 28.4273 6.704 29.1313 6.192C29.8353 5.664 30.5793 5.376 31.3633 5.328C31.5233 5.328 31.6513 5.328 31.7473 5.328C31.8593 5.328 31.9553 5.336 32.0353 5.352V7.728ZM48.1399 17.352C47.9159 17.464 47.6359 17.584 47.2999 17.712C46.9639 17.84 46.5799 17.952 46.1479 18.048C45.7319 18.144 45.2999 18.192 44.8519 18.192C44.3079 18.192 43.8039 18.096 43.3399 17.904C42.8759 17.712 42.4999 17.408 42.2119 16.992C41.9399 16.56 41.8039 16.008 41.8039 15.336V7.488H40.1479V5.448H41.8039V1.32H44.4439V5.448H47.1799V7.488H44.4439V14.496C44.4759 14.928 44.6119 15.248 44.8519 15.456C45.1079 15.664 45.4199 15.768 45.7879 15.768C46.1559 15.768 46.5079 15.704 46.8439 15.576C47.1799 15.448 47.4279 15.344 47.5879 15.264L48.1399 17.352ZM8.88 46.12C7.76 46.12 6.712 45.888 5.736 45.424C4.76 44.96 3.904 44.32 3.168 43.504C2.448 42.688 1.88 41.76 1.464 40.72C1.064 39.68 0.864 38.576 0.864 37.408C0.864 36.24 1.064 35.144 1.464 34.12C1.88 33.096 2.448 32.184 3.168 31.384C3.904 30.584 4.76 29.96 5.736 29.512C6.728 29.064 7.808 28.84 8.976 28.84C10.592 28.84 11.952 29.184 13.056 29.872C14.176 30.544 15.016 31.44 15.576 32.56L13.512 34.048C13.064 33.12 12.424 32.424 11.592 31.96C10.776 31.496 9.88 31.264 8.904 31.264C8.104 31.264 7.376 31.432 6.72 31.768C6.064 32.104 5.496 32.568 5.016 33.16C4.552 33.736 4.2 34.4 3.96 35.152C3.72 35.888 3.6 36.664 3.6 37.48C3.6 38.344 3.736 39.152 4.008 39.904C4.28 40.656 4.664 41.32 5.16 41.896C5.656 42.456 6.24 42.896 6.912 43.216C7.584 43.536 8.312 43.696 9.096 43.696C10.024 43.696 10.904 43.464 11.736 43C12.584 42.52 13.376 41.808 14.112 40.864V43.6C12.624 45.28 10.88 46.12 8.88 46.12ZM13.848 39.376H10.272V37.384H16.104V46H13.848V39.376ZM25.122 42.328C25.122 41.528 25.346 40.832 25.794 40.24C26.258 39.632 26.89 39.168 27.69 38.848C28.49 38.512 29.418 38.344 30.474 38.344C31.034 38.344 31.602 38.384 32.178 38.464C32.77 38.544 33.29 38.672 33.738 38.848V38.056C33.738 37.176 33.474 36.488 32.946 35.992C32.418 35.496 31.658 35.248 30.666 35.248C29.962 35.248 29.298 35.376 28.674 35.632C28.05 35.872 27.386 36.216 26.682 36.664L25.794 34.888C26.626 34.328 27.458 33.912 28.29 33.64C29.138 33.368 30.026 33.232 30.954 33.232C32.634 33.232 33.954 33.68 34.914 34.576C35.89 35.456 36.378 36.712 36.378 38.344V43.024C36.378 43.328 36.426 43.544 36.522 43.672C36.634 43.8 36.818 43.872 37.074 43.888V46C36.834 46.048 36.618 46.08 36.426 46.096C36.234 46.112 36.074 46.12 35.946 46.12C35.386 46.12 34.962 45.984 34.674 45.712C34.386 45.44 34.218 45.12 34.17 44.752L34.098 44.032C33.554 44.736 32.858 45.28 32.01 45.664C31.162 46.048 30.306 46.24 29.442 46.24C28.61 46.24 27.866 46.072 27.21 45.736C26.554 45.384 26.042 44.912 25.674 44.32C25.306 43.728 25.122 43.064 25.122 42.328ZM33.114 43.096C33.306 42.888 33.458 42.68 33.57 42.472C33.682 42.264 33.738 42.08 33.738 41.92V40.48C33.29 40.304 32.818 40.176 32.322 40.096C31.826 40 31.338 39.952 30.858 39.952C29.898 39.952 29.114 40.144 28.506 40.528C27.914 40.912 27.618 41.44 27.618 42.112C27.618 42.48 27.714 42.832 27.906 43.168C28.114 43.504 28.402 43.776 28.77 43.984C29.154 44.192 29.626 44.296 30.186 44.296C30.762 44.296 31.314 44.184 31.842 43.96C32.37 43.736 32.794 43.448 33.114 43.096ZM46.8049 28.48H49.4449V42.376C49.4449 43.016 49.5409 43.424 49.7329 43.6C49.9249 43.776 50.1649 43.864 50.4529 43.864C50.7729 43.864 51.0689 43.832 51.3409 43.768C51.6289 43.704 51.8769 43.624 52.0849 43.528L52.4689 45.616C52.0849 45.776 51.6289 45.912 51.1009 46.024C50.5729 46.136 50.1009 46.192 49.6849 46.192C48.7889 46.192 48.0849 45.944 47.5729 45.448C47.0609 44.936 46.8049 44.232 46.8049 43.336V28.48ZM61.2236 28.48H63.8636V42.376C63.8636 43.016 63.9596 43.424 64.1516 43.6C64.3436 43.776 64.5836 43.864 64.8716 43.864C65.1916 43.864 65.4876 43.832 65.7596 43.768C66.0476 43.704 66.2956 43.624 66.5036 43.528L66.8876 45.616C66.5036 45.776 66.0476 45.912 65.5196 46.024C64.9916 46.136 64.5196 46.192 64.1036 46.192C63.2076 46.192 62.5036 45.944 61.9916 45.448C61.4796 44.936 61.2236 44.232 61.2236 43.336V28.48ZM81.3064 46.24C80.3304 46.24 79.4424 46.072 78.6424 45.736C77.8584 45.384 77.1784 44.912 76.6024 44.32C76.0264 43.712 75.5784 43.024 75.2584 42.256C74.9544 41.472 74.8024 40.64 74.8024 39.76C74.8024 38.576 75.0744 37.496 75.6184 36.52C76.1624 35.528 76.9224 34.736 77.8984 34.144C78.8744 33.536 80.0184 33.232 81.3304 33.232C82.6424 33.232 83.7704 33.536 84.7144 34.144C85.6744 34.736 86.4184 35.52 86.9464 36.496C87.4744 37.472 87.7384 38.52 87.7384 39.64C87.7384 39.832 87.7304 40.016 87.7144 40.192C87.6984 40.352 87.6824 40.488 87.6664 40.6H77.6104C77.6584 41.336 77.8584 41.984 78.2104 42.544C78.5784 43.088 79.0424 43.52 79.6024 43.84C80.1624 44.144 80.7624 44.296 81.4024 44.296C82.1064 44.296 82.7704 44.12 83.3944 43.768C84.0344 43.416 84.4664 42.952 84.6904 42.376L86.9464 43.024C86.6744 43.632 86.2584 44.184 85.6984 44.68C85.1544 45.16 84.5064 45.544 83.7544 45.832C83.0024 46.104 82.1864 46.24 81.3064 46.24ZM77.5384 38.848H85.1224C85.0744 38.128 84.8664 37.496 84.4984 36.952C84.1464 36.392 83.6904 35.96 83.1304 35.656C82.5864 35.336 81.9784 35.176 81.3064 35.176C80.6504 35.176 80.0424 35.336 79.4824 35.656C78.9384 35.96 78.4904 36.392 78.1384 36.952C77.7864 37.496 77.5864 38.128 77.5384 38.848ZM104.148 35.728C103.124 35.744 102.212 35.976 101.412 36.424C100.628 36.872 100.068 37.504 99.7318 38.32V46H97.0918V33.448H99.5398V36.256C99.9718 35.392 100.54 34.704 101.244 34.192C101.948 33.664 102.692 33.376 103.476 33.328C103.636 33.328 103.764 33.328 103.86 33.328C103.972 33.328 104.068 33.336 104.148 33.352V35.728ZM113.7 48.952C113.94 48.984 114.172 49.016 114.396 49.048C114.636 49.096 114.828 49.12 114.972 49.12C115.244 49.12 115.476 49.032 115.668 48.856C115.876 48.696 116.084 48.392 116.292 47.944C116.5 47.496 116.756 46.848 117.06 46L111.9 33.448H114.66L118.5 43.312L121.908 33.448H124.452L118.764 48.904C118.588 49.368 118.332 49.792 117.996 50.176C117.66 50.576 117.244 50.888 116.748 51.112C116.252 51.336 115.668 51.448 114.996 51.448C114.804 51.448 114.604 51.432 114.396 51.4C114.188 51.368 113.956 51.32 113.7 51.256V48.952Z" fill="white"/>
</svg>
